<?xml version="1.0" encoding="UTF-8"?>
<svg width="275px" height="73px" viewBox="0 0 275 73" version="1.1" xmlns="http://www.w3.org/2000/svg" xmlns:xlink="http://www.w3.org/1999/xlink">
    <!-- Generator: Sketch 57.1 (83088) - https://sketch.com -->
    <title>Group 16</title>
    <desc>Created with Sketch.</desc>
    <g id="Page-1" stroke="none" stroke-width="1" fill="none" fill-rule="evenodd">
        <g id="img" transform="translate(-192.000000, -5.000000)">
            <g id="Group-16" transform="translate(192.000000, 5.000000)">
                <path d="M27,51.3073173 L27,56.832256 C23.779227,57.610752 21.3155797,58 19.6105525,58 C11.1317406,58 6.89183655,53.4084622 6.89183655,44.225883 L6.89183655,22.8375982 L0,22.8375982 L0,17.3489033 L6.89183655,17.3489033 L6.89183655,8 L13.4997509,8 L13.4997509,17.3489033 L25.081284,17.3489033 L25.081284,22.8375982 L13.4997509,22.8375982 L13.4997509,41.2861668 C13.4997509,44.9924633 13.8673554,47.6010208 14.60107,49.1118393 C15.7143437,51.3788118 17.881118,52.5118016 21.1028872,52.5118016 C22.4044461,52.5118016 24.3709805,52.1101413 27,51.3073173" id="Fill-1" fill="#07005C"></path>
                <path d="M34.021498,32.8498478 L55.6234411,32.8498478 L55.6234411,32.0661688 C55.6234411,28.9069784 54.6439776,26.3601465 52.686055,24.4246742 C50.7276302,22.4887023 48.1840387,21.5207164 45.0552805,21.5207164 C42.1409997,21.5207164 39.6461302,22.7204595 37.5681606,25.1189468 C35.776998,27.2087575 34.5946097,29.785558 34.021498,32.8498478 L34.021498,32.8498478 Z M55.0864942,46.6718676 L61.7493578,46.6718676 L61.7493578,47.0279945 C61.7493578,48.7851536 61.0451486,50.5782751 59.636228,52.407359 C56.7701669,56.1354533 52.2435384,58 46.0583516,58 C40.0399248,58 35.3108738,56.0165779 31.8722033,52.0507326 C28.6239003,48.2986633 27,43.3698268 27,37.2672201 C27,31.3773904 28.6239003,26.4370659 31.8722033,22.4472457 C35.3590936,18.1482495 39.9917051,16 45.7720469,16 C56.5908497,16 62,22.5426458 62,35.6279374 L62,37.8366235 L33.5915386,37.8366235 C33.5915386,42.0641947 34.6895423,45.5080868 36.887559,48.1678004 C39.2277235,51.0412901 42.4760265,52.4782847 46.6314634,52.4782847 C48.7571504,52.4782847 50.5844778,52.0981829 52.1129433,51.3384787 C54.0949757,50.388474 55.0864942,48.9509799 55.0864942,47.0279945 L55.0864942,46.6718676 Z" id="Fill-3" fill="#07005C"></path>
                <path d="M89.4281853,46.6718676 L96,46.6718676 L96,47.0279945 C96,48.8086291 95.344149,50.60225 94.0319541,52.407359 C91.2907826,56.1354533 86.9678816,58 81.063744,58 C75.0191725,58 70.4267369,55.9816145 67.2874229,51.9438445 C64.428484,48.262701 63,43.2754257 63,36.9820188 C63,30.6881125 64.428484,25.7128247 67.2874229,22.055656 C70.4267369,18.017886 75.0191725,16 81.063744,16 C86.850607,16 91.1730152,17.792622 94.0319541,21.378865 C95.344149,23.064599 96,24.9291457 96,26.971506 L96,27.327633 L89.4281853,27.327633 L89.4281853,26.971506 C89.4281853,23.3383122 86.7574771,21.5212159 81.4155679,21.5212159 C77.3385495,21.5212159 74.3041914,23.1360242 72.3129862,26.3666397 C70.6489675,29.0503282 69.8176972,32.5886214 69.8176972,36.9820188 C69.8176972,41.3754162 70.6489675,44.9137094 72.3129862,47.5978974 C74.3041914,50.8514889 77.3385495,52.4782847 81.4155679,52.4782847 C83.5003957,52.4782847 85.2580371,52.0981829 86.6870138,51.3384787 C88.5146257,50.388474 89.4281853,48.9509799 89.4281853,47.0279945 L89.4281853,46.6718676 Z" id="Fill-5" fill="#07005C"></path>
                <path d="M107.099709,50.9400674 L115.464918,50.9400674 C120.455461,50.9400674 124.227812,50.19624 126.781973,48.7080883 C132.006594,45.6835876 134.620383,39.410991 134.620383,29.8898013 C134.620383,19.8250264 132.136199,13.186727 127.168818,9.97390935 C124.637819,8.34315346 120.678204,7.5282724 115.28899,7.5282724 L107.099709,7.5282724 L107.099709,50.9400674 Z M100,57 L100,2 L115.078073,2 C122.411367,2 127.777913,3.00369497 131.175248,5.01207867 C138.391749,9.28871363 142,17.3803832 142,29.2875844 C142,40.62735 138.533182,48.672313 131.597081,53.4209827 C128.10513,55.8069942 122.927817,57 116.062186,57 L100,57 Z" id="Fill-7" fill="#2962FF"></path>
                <path d="M144,57 L151,57 L151,17.4155224 L144,17.4155224 L144,57 Z M144,8.62631446 L151,8.62631446 L151,2 L144,2 L144,8.62631446 Z" id="Fill-9" fill="#2962FF"></path>
                <path d="M184.35672,35.6352975 C184.35672,31.9859269 183.440871,28.8079539 181.60617,26.0998931 C179.535121,23.0160017 176.737002,21.4730656 173.214316,21.4730656 C169.404206,21.4730656 166.487412,23.1219671 164.463933,26.4177895 C162.772944,29.149123 161.9282,32.5276381 161.9282,36.5533345 C161.9282,40.6503349 162.74991,44.0174611 164.392328,46.654218 C166.345203,49.7856454 169.237961,51.3508639 173.071605,51.3508639 C176.856177,51.3508639 179.772971,49.5851033 181.820486,46.0535821 C183.511475,43.1340856 184.35672,39.660994 184.35672,35.6352975 L184.35672,35.6352975 Z M184.35672,48.2080477 C181.642724,53.7643012 177.308844,56.5426755 171.357081,56.5426755 C166.094333,56.5426755 161.964253,54.4233666 158.964837,50.1857392 C156.321445,46.4655599 155,41.8981523 155,36.483021 C155,30.6910688 156.308927,25.946887 158.928283,22.2509708 C161.904164,18.0836569 166.154923,16 171.678555,16 C174.605864,16 177.070493,16.6229183 179.071439,17.871726 C180.856567,18.977926 182.619162,20.8263793 184.35672,23.4156003 L184.35672,17.094316 L191,17.094316 L191,49.3380157 C191,57.4369446 190.142237,62.7817623 188.428714,65.3714785 C185.070771,70.4568294 179.808023,73 172.641973,73 C165.690238,73 160.761482,71.1990826 157.857206,67.5967528 C156.500209,65.9018008 155.82171,64.147429 155.82171,62.3346277 L155.82171,61.7339918 L162.464489,61.7339918 L162.464489,62.299471 C162.464489,64.347476 163.714329,65.8899169 166.21451,66.9258033 C168.047709,67.6789502 170.166328,68.0557713 172.57187,68.0557713 C177.284808,68.0557713 180.535594,66.5846342 182.320722,63.6413698 C183.678721,61.4279795 184.35672,57.8608063 184.35672,52.9403456 L184.35672,48.2080477 Z" id="Fill-11" fill="#2962FF"></path>
                <path d="M195,57 L202,57 L202,17.4155224 L195,17.4155224 L195,57 Z M195,8.62631446 L202,8.62631446 L202,2 L195,2 L195,8.62631446 Z" id="Fill-12" fill="#2962FF"></path>
                <path d="M231,51.3073173 L231,56.832256 C227.778669,57.610752 225.316471,58 223.610416,58 C215.131946,58 210.891964,53.4084622 210.891964,44.225883 L210.891964,22.8375982 L204,22.8375982 L204,17.3489033 L210.891964,17.3489033 L210.891964,8 L217.500498,8 L217.500498,17.3489033 L229.082245,17.3489033 L229.082245,22.8375982 L217.500498,22.8375982 L217.500498,41.2861668 C217.500498,44.9924633 217.868109,47.6010208 218.600841,49.1118393 C219.715132,51.3788118 221.881946,52.5118016 225.103277,52.5118016 C226.405358,52.5118016 228.371928,52.1101413 231,51.3073173" id="Fill-13" fill="#2962FF"></path>
                <path d="M256.199058,36.822091 L254.257086,37.3206354 C249.494273,38.55477 246.364758,39.5154288 244.861735,40.2036097 C240.931612,41.9831989 238.967765,44.3321966 238.967765,47.250603 C238.967765,48.9588289 239.626432,50.371122 240.943764,51.4859852 C242.192557,52.5070282 243.660094,53.0165516 245.346863,53.0165516 C247.241197,53.0165516 249.044144,52.45912 250.755218,51.3442568 C252.466292,50.2283956 253.800638,48.7871579 254.759714,47.0195459 C255.718791,45.2519338 256.199058,43.1694253 256.199058,40.7730184 L256.199058,36.822091 Z M257.204314,56.8966148 C256.533009,54.7607086 256.199058,52.9222324 256.199058,51.3791899 C251.852347,55.7932296 247.531399,58 243.232326,58 C239.994896,58 237.338356,57.0268652 235.257846,55.0815936 C233.085463,53.0405057 232,50.3830991 232,47.1083756 C232,42.5521085 234.482516,39.0408384 239.452894,36.5730683 C242.133738,35.2680695 246.56017,34.0099809 252.731703,32.7998004 L256.199058,32.1235964 L256.199058,27.6391915 C256.199058,23.2256508 253.48127,21.0188805 248.051041,21.0188805 C245.923864,21.0188805 244.064044,21.4695168 242.469148,22.3712884 C240.504815,23.4866506 239.522406,25.0526491 239.522406,27.0697829 L239.522406,27.6391915 L232.519642,27.6391915 L232.519642,27.104716 C232.519642,25.34958 233.247334,23.5340597 234.703691,21.6591533 C237.593073,17.8868835 242.123044,16 248.294577,16 C254.487012,16 258.740878,17.6613158 261.052286,20.9834484 C262.115388,22.5259918 262.647182,25.4084671 262.647182,29.6328703 L262.647182,45.0797638 C262.647182,49.9444398 263.098283,53.8833902 264,56.8966148 L257.204314,56.8966148 Z" id="Fill-14" fill="#2962FF"></path>
                <polygon id="Fill-15" fill="#2962FF" points="268 57 275 57 275 0 268 0"></polygon>
            </g>
        </g>
    </g>
</svg>